<?xml version="1.0" standalone="no"?>
<!DOCTYPE svg PUBLIC "-//W3C//DTD SVG 20010904//EN"
 "http://www.w3.org/TR/2001/REC-SVG-20010904/DTD/svg10.dtd">
<svg version="1.0" xmlns="http://www.w3.org/2000/svg"
 width="200.000000pt" height="200.000000pt" viewBox="0 0 200.000000 200.000000"
 preserveAspectRatio="xMidYMid meet">

<g transform="translate(0.000000,200.000000) scale(0.100000,-0.100000)"
fill="#000000" stroke="none">
<path d="M440 1285 l0 -115 79 0 c44 0 86 3 95 6 21 8 23 102 2 110 -10 4 -12
18 -8 49 4 41 2 45 -22 55 -15 5 -54 10 -87 10 l-59 0 0 -115z m108 42 c2 -12
-3 -17 -17 -17 -15 0 -21 6 -21 21 0 25 33 22 38 -4z m20 -89 c3 -14 -3 -18
-27 -18 -25 0 -31 4 -31 21 0 16 5 20 27 17 17 -2 29 -10 31 -20z"/>
<path d="M670 1371 c0 -23 5 -30 23 -33 20 -3 22 -9 22 -58 0 -49 -2 -55 -22
-58 -17 -3 -23 -10 -23 -28 0 -23 2 -24 80 -24 79 0 80 0 80 25 0 18 -5 25
-20 25 -18 0 -20 7 -20 60 0 53 2 60 20 60 16 0 20 7 20 30 l0 30 -80 0 -80 0
0 -29z"/>
<path d="M890 1380 c-17 -17 -20 -33 -20 -99 0 -58 4 -84 15 -95 20 -20 76
-30 120 -22 56 11 65 27 65 117 0 103 -14 119 -100 119 -47 0 -64 -4 -80 -20z
m108 -97 c-3 -54 -5 -58 -28 -58 -23 0 -25 4 -28 58 l-3 57 31 0 31 0 -3 -57z"/>
<path d="M1120 1285 l0 -115 30 0 30 0 1 63 c0 59 1 61 16 40 19 -27 41 -29
59 -5 12 15 13 9 14 -40 l0 -58 35 0 35 0 0 115 0 115 -33 0 c-28 0 -37 -6
-53 -35 -10 -19 -22 -35 -25 -35 -4 0 -16 16 -28 35 -16 28 -27 35 -51 35
l-30 0 0 -115z"/>
<path d="M1397 1393 c-4 -3 -7 -55 -7 -115 l0 -108 85 0 c84 0 85 0 85 25 0
23 -3 25 -50 25 -43 0 -50 3 -50 20 0 17 7 20 40 20 36 0 40 3 40 25 0 23 -4
25 -40 25 -29 0 -40 4 -40 15 0 11 12 15 50 15 49 0 50 1 50 30 l0 30 -78 0
c-43 0 -82 -3 -85 -7z"/>
</g>
</svg>
